<svg width="1118" height="402" viewBox="0 0 1118 402" fill="none" xmlns="http://www.w3.org/2000/svg">
<path opacity="0.9" fill-rule="evenodd" clip-rule="evenodd" d="M15 0H542.203C544.888 0 547 2.20428 548.107 4.65021C550.069 8.98459 554.433 12 559.5 12C564.567 12 568.931 8.98459 570.893 4.65021C572 2.20428 574.112 0 576.797 0H1103C1111.28 0 1118 6.71573 1118 15V387C1118 395.284 1111.28 402 1103 402H576.797C574.112 402 572 399.796 570.893 397.35C568.931 393.015 564.567 390 559.5 390C554.433 390 550.069 393.015 548.107 397.35C547 399.796 544.888 402 542.203 402H15C6.71574 402 0 395.284 0 387V15C0 6.71574 6.71573 0 15 0ZM559 23C559 22.4477 559.448 22 560 22C560.552 22 561 22.4477 561 23V34C561 34.5523 560.552 35 560 35C559.448 35 559 34.5523 559 34V23ZM560 45C559.448 45 559 45.4477 559 46V57C559 57.5523 559.448 58 560 58C560.552 58 561 57.5523 561 57V46C561 45.4477 560.552 45 560 45ZM559 69C559 68.4477 559.448 68 560 68C560.552 68 561 68.4477 561 69V80C561 80.5523 560.552 81 560 81C559.448 81 559 80.5523 559 80V69ZM560 91C559.448 91 559 91.4477 559 92V103C559 103.552 559.448 104 560 104C560.552 104 561 103.552 561 103V92C561 91.4477 560.552 91 560 91ZM559 115C559 114.448 559.448 114 560 114C560.552 114 561 114.448 561 115V126C561 126.552 560.552 127 560 127C559.448 127 559 126.552 559 126V115ZM560 137C559.448 137 559 137.448 559 138V149C559 149.552 559.448 150 560 150C560.552 150 561 149.552 561 149V138C561 137.448 560.552 137 560 137ZM559 161C559 160.448 559.448 160 560 160C560.552 160 561 160.448 561 161V172C561 172.552 560.552 173 560 173C559.448 173 559 172.552 559 172V161ZM560 183C559.448 183 559 183.448 559 184V195C559 195.552 559.448 196 560 196C560.552 196 561 195.552 561 195V184C561 183.448 560.552 183 560 183ZM559 207C559 206.448 559.448 206 560 206C560.552 206 561 206.448 561 207V218C561 218.552 560.552 219 560 219C559.448 219 559 218.552 559 218V207ZM560 229C559.448 229 559 229.448 559 230V241C559 241.552 559.448 242 560 242C560.552 242 561 241.552 561 241V230C561 229.448 560.552 229 560 229ZM559 253C559 252.448 559.448 252 560 252C560.552 252 561 252.448 561 253V264C561 264.552 560.552 265 560 265C559.448 265 559 264.552 559 264V253ZM560 275C559.448 275 559 275.448 559 276V287C559 287.552 559.448 288 560 288C560.552 288 561 287.552 561 287V276C561 275.448 560.552 275 560 275ZM559 299C559 298.448 559.448 298 560 298C560.552 298 561 298.448 561 299V310C561 310.552 560.552 311 560 311C559.448 311 559 310.552 559 310V299ZM560 321C559.448 321 559 321.448 559 322V333C559 333.552 559.448 334 560 334C560.552 334 561 333.552 561 333V322C561 321.448 560.552 321 560 321ZM559 345C559 344.448 559.448 344 560 344C560.552 344 561 344.448 561 345V356C561 356.552 560.552 357 560 357C559.448 357 559 356.552 559 356V345ZM560 367C559.448 367 559 367.448 559 368V379C559 379.552 559.448 380 560 380C560.552 380 561 379.552 561 379V368C561 367.448 560.552 367 560 367Z" fill="url(#paint0_linear)"/>
<defs>
<linearGradient id="paint0_linear" x1="-5.89697e-06" y1="205.847" x2="1113" y2="205.847" gradientUnits="userSpaceOnUse">
<stop stop-color="#08776C"/>
<stop offset="1" stop-color="#08776C" stop-opacity="0.76"/>
</linearGradient>
</defs>
</svg>
