<svg width="239" height="148" viewBox="0 0 239 148" fill="none" xmlns="http://www.w3.org/2000/svg">
<path d="M94.5656 19.8661C93.9951 17.2026 91.824 15 89.1001 15H10C4.47715 15 0 19.4772 0 25V138C0 143.523 4.47716 148 10 148H229C234.523 148 239 143.523 239 138V25C239 19.4772 234.523 15 229 15H149.9C147.176 15 145.005 17.2026 144.434 19.8661C141.97 31.3727 131.742 40 119.5 40C107.258 40 97.0301 31.3727 94.5656 19.8661Z" fill="url(#paint0_linear)"/>
<path d="M113.87 12.1855L119.503 6.55543L125.138 12.1901L128.413 8.91236L119.503 0L110.592 8.91007L113.87 12.1855Z" fill="#21675E"/>
<path d="M105 14.5006L108.277 11.224L111.553 14.5006L108.277 17.7771L105 14.5006Z" fill="#21675E"/>
<path d="M119.503 22.4469L113.87 16.8145L110.588 20.0876L119.503 29L128.415 20.0853L125.138 16.8122L119.503 22.4469Z" fill="#21675E"/>
<path d="M127.447 14.5016L130.723 11.2251L134 14.5016L130.723 17.7781L127.447 14.5016Z" fill="#21675E"/>
<path d="M119.503 11.1729L122.826 14.4987H122.829L119.503 17.8268L116.179 14.5056L116.175 14.4987L116.761 13.9124L117.045 13.6306L119.503 11.1729Z" fill="#21675E"/>
<defs>
<linearGradient id="paint0_linear" x1="119.5" y1="15" x2="119.5" y2="148" gradientUnits="userSpaceOnUse">
<stop stop-color="#21A598" stop-opacity="0.56"/>
<stop offset="1" stop-color="#21A598" stop-opacity="0.66"/>
</linearGradient>
</defs>
</svg>
