<svg width="19" height="19" viewBox="0 0 19 19" fill="none" xmlns="http://www.w3.org/2000/svg">
<path d="M5.81156 7.9836L9.50182 4.29494L13.1936 7.9866L15.3396 5.83913L9.50182 0L3.66404 5.83763L5.81156 7.9836Z" fill="#BAFFF7"/>
<path d="M0 9.50037L2.14674 7.35368L4.29347 9.50037L2.14674 11.647L0 9.50037Z" fill="#BAFFF7"/>
<path d="M9.50184 14.7066L5.81158 11.0164L3.66106 13.1609L9.50184 19L15.3411 13.1594L13.1936 11.0149L9.50184 14.7066Z" fill="#BAFFF7"/>
<path d="M14.7065 9.50103L16.8533 7.35435L19 9.50103L16.8533 11.6477L14.7065 9.50103Z" fill="#BAFFF7"/>
<path d="M9.50183 7.32018L11.6794 9.49917H11.6809L9.50183 11.6796L7.32429 9.50367L7.32129 9.49917L7.70547 9.11499L7.89156 8.93041L9.50183 7.32018Z" fill="#BAFFF7"/>
</svg>
